<svg xmlns="http://www.w3.org/2000/svg" xmlns:xlink="http://www.w3.org/1999/xlink" viewBox="0 0 128 80" width="128" height="80" style="width: 100%; height: 100%; transform: translate3d(0px, 0px, 0px);" preserveAspectRatio="xMidYMid meet"><defs><clipPath id="__lottie_element_2"><rect width="128" height="80" x="0" y="0"></rect></clipPath><clipPath id="__lottie_element_4"><path fill="#ffffff" clip-rule="nonzero" d=" M1443.14404296875,424.64300537109375 C1443.14404296875,424.64300537109375 984.7529907226562,424.3240051269531 984.7529907226562,424.3240051269531 C984.7529907226562,424.3240051269531 971.208984375,424.31500244140625 971.208984375,424.31500244140625 C971.208984375,424.31500244140625 910.9609985351562,424.27301025390625 910.9609985351562,424.27301025390625 C910.9609985351562,424.27301025390625 895.552001953125,424.3009948730469 895.552001953125,424.3009948730469 C895.552001953125,424.3009948730469 867.5280151367188,424.3529968261719 867.5280151367188,424.3529968261719 C867.5280151367188,424.3529968261719 849.781005859375,424.3489990234375 849.781005859375,424.3489990234375 C849.781005859375,424.3489990234375 801.676025390625,424.3340148925781 801.676025390625,424.3340148925781 C801.676025390625,424.3340148925781 508.8269958496094,424.1759948730469 508.8269958496094,424.1759948730469 C508.8269958496094,424.1759948730469 508.8269958496094,599.4730224609375 508.8269958496094,599.4730224609375 C508.8269958496094,599.4730224609375 1443.14404296875,599.9409790039062 1443.14404296875,599.9409790039062 C1443.14404296875,599.9409790039062 1443.14404296875,424.64300537109375 1443.14404296875,424.64300537109375" fill-opacity="1"></path></clipPath></defs><g clip-path="url(#__lottie_element_2)"><g clip-path="url(#__lottie_element_4)" style="display: block;" transform="matrix(0.13381999731063843,0,0,0.13381999731063843,-65.71719360351562,-32.26280212402344)" opacity="1"><g opacity="1" transform="matrix(1,0,0,1,1275.6240234375,512.89501953125)"><path fill="rgb(220,228,213)" fill-opacity="1" d=" M-74.56999969482422,80.30500030517578 C-74.56999969482422,80.30500030517578 -74.56999969482422,-80.30500030517578 -74.56999969482422,-80.30500030517578 C-74.56999969482422,-80.30500030517578 -22.944000244140625,-80.30500030517578 -22.944000244140625,-80.30500030517578 C-22.944000244140625,-80.30500030517578 33.27000045776367,20.650999069213867 33.27000045776367,20.650999069213867 C33.27000045776367,20.650999069213867 32.12200164794922,-80.30500030517578 32.12200164794922,-80.30500030517578 C32.12200164794922,-80.30500030517578 74.56999969482422,-80.30500030517578 74.56999969482422,-80.30500030517578 C74.56999969482422,-80.30500030517578 74.56999969482422,80.30500030517578 74.56999969482422,80.30500030517578 C74.56999969482422,80.30500030517578 22.945999145507812,80.30500030517578 22.945999145507812,80.30500030517578 C22.945999145507812,80.30500030517578 -33.26900100708008,-20.649999618530273 -33.26900100708008,-20.649999618530273 C-33.26900100708008,-20.649999618530273 -32.12300109863281,80.30500030517578 -32.12300109863281,80.30500030517578 C-32.12300109863281,80.30500030517578 -74.56999969482422,80.30500030517578 -74.56999969482422,80.30500030517578z"></path></g><g opacity="1" transform="matrix(1,0,0,1,1137.85400390625,512.8939819335938)"><path fill="rgb(220,228,213)" fill-opacity="1" d=" M-21.224000930786133,-80.30500030517578 C-21.224000930786133,-80.30500030517578 21.224000930786133,-80.30500030517578 21.224000930786133,-80.30500030517578 C21.224000930786133,-80.30500030517578 21.224000930786133,80.30500030517578 21.224000930786133,80.30500030517578 C21.224000930786133,80.30500030517578 -21.224000930786133,80.30500030517578 -21.224000930786133,80.30500030517578 C-21.224000930786133,80.30500030517578 -21.224000930786133,-80.30500030517578 -21.224000930786133,-80.30500030517578z"></path></g><g opacity="1" transform="matrix(1,0,0,1,1003.68701171875,512.7589721679688)"><path fill="rgb(220,228,213)" fill-opacity="1" d=" M-82.5999984741211,80.30500030517578 C-82.5999984741211,80.30500030517578 -39.00600051879883,-80.30500030517578 -39.00600051879883,-80.30500030517578 C-39.00600051879883,-80.30500030517578 39.005001068115234,-80.30500030517578 39.005001068115234,-80.30500030517578 C39.005001068115234,-80.30500030517578 82.5999984741211,80.30500030517578 82.5999984741211,80.30500030517578 C82.5999984741211,80.30500030517578 39.005001068115234,80.30500030517578 39.005001068115234,80.30500030517578 C39.005001068115234,80.30500030517578 30.974000930786133,48.18299865722656 30.974000930786133,48.18299865722656 C30.974000930786133,48.18299865722656 -30.975000381469727,48.18299865722656 -30.975000381469727,48.18299865722656 C-30.975000381469727,48.18299865722656 -39.00600051879883,80.30500030517578 -39.00600051879883,80.30500030517578 C-39.00600051879883,80.30500030517578 -82.5999984741211,80.30500030517578 -82.5999984741211,80.30500030517578z M-21.797000885009766,11.472000122070312 C-21.797000885009766,11.472000122070312 21.797000885009766,11.472000122070312 21.797000885009766,11.472000122070312 C21.797000885009766,11.472000122070312 8.031000137329102,-41.29899978637695 8.031000137329102,-41.29899978637695 C8.031000137329102,-41.29899978637695 -0.9100000262260437,-41.29899978637695 -0.9100000262260437,-41.29899978637695 C-0.9100000262260437,-41.29899978637695 -8.029999732971191,-41.29899978637695 -8.029999732971191,-41.29899978637695 C-8.029999732971191,-41.29899978637695 -21.797000885009766,11.472000122070312 -21.797000885009766,11.472000122070312z"></path></g><g opacity="1" transform="matrix(1,0,0,1,794.7169799804688,512.89501953125)"><path fill="rgb(220,228,213)" fill-opacity="1" d=" M-95.79299926757812,80.30500030517578 C-95.79299926757812,80.30500030517578 -95.79299926757812,-80.30500030517578 -95.79299926757812,-80.30500030517578 C-95.79299926757812,-80.30500030517578 -36.13800048828125,-80.30500030517578 -36.13800048828125,-80.30500030517578 C-36.13800048828125,-80.30500030517578 -0.17299999296665192,8.394000053405762 -0.17299999296665192,8.394000053405762 C-0.17299999296665192,8.394000053405762 36.13800048828125,-80.30500030517578 36.13800048828125,-80.30500030517578 C36.13800048828125,-80.30500030517578 95.79299926757812,-80.30500030517578 95.79299926757812,-80.30500030517578 C95.79299926757812,-80.30500030517578 95.79299926757812,80.30500030517578 95.79299926757812,80.30500030517578 C95.79299926757812,80.30500030517578 53.34600067138672,80.30500030517578 53.34600067138672,80.30500030517578 C53.34600067138672,80.30500030517578 54.49300003051758,-32.12200164794922 54.49300003051758,-32.12200164794922 C54.49300003051758,-32.12200164794922 23.51799964904785,48.018001556396484 23.51799964904785,48.018001556396484 C23.51799964904785,48.018001556396484 -23.51799964904785,48.018001556396484 -23.51799964904785,48.018001556396484 C-23.51799964904785,48.018001556396484 -54.24100112915039,-32.12200164794922 -54.24100112915039,-32.12200164794922 C-54.24100112915039,-32.12200164794922 -53.34600067138672,80.30500030517578 -53.34600067138672,80.30500030517578 C-53.34600067138672,80.30500030517578 -95.79299926757812,80.30500030517578 -95.79299926757812,80.30500030517578z"></path></g><g opacity="1" transform="matrix(1.0069700479507446,0,0,0.9972900152206421,582.0780029296875,515.1900024414062)"><path fill="rgb(220,228,213)" fill-opacity="1" d=" M-72.2750015258789,13.767000198364258 C-72.2750015258789,13.767000198364258 -72.2750015258789,-82.5999984741211 -72.2750015258789,-82.5999984741211 C-72.2750015258789,-82.5999984741211 -29.827999114990234,-82.5999984741211 -29.827999114990234,-82.5999984741211 C-29.827999114990234,-82.5999984741211 -29.827999114990234,12.619999885559082 -29.827999114990234,12.619999885559082 C-29.827999114990234,22.256000518798828 -27.152999877929688,29.827999114990234 -21.797000885009766,35.33399963378906 C-16.44499969482422,40.840999603271484 -9.178000450134277,43.595001220703125 0,43.595001220703125 C9.178000450134277,43.595001220703125 16.44099998474121,40.840999603271484 21.797000885009766,35.33399963378906 C27.149999618530273,29.827999114990234 29.827999114990234,22.256000518798828 29.827999114990234,12.619999885559082 C29.827999114990234,12.619999885559082 29.827999114990234,-82.5999984741211 29.827999114990234,-82.5999984741211 C29.827999114990234,-82.5999984741211 72.2750015258789,-82.5999984741211 72.2750015258789,-82.5999984741211 C72.2750015258789,-82.5999984741211 72.2750015258789,13.767000198364258 72.2750015258789,13.767000198364258 C72.2750015258789,34.57099914550781 65.77200317382812,51.244998931884766 52.77199935913086,63.7859992980957 C39.76900100708008,76.33000183105469 22.177000045776367,82.5999984741211 0,82.5999984741211 C-22.180999755859375,82.5999984741211 -39.77299880981445,76.33000183105469 -52.77299880981445,63.7859992980957 C-65.7750015258789,51.244998931884766 -72.2750015258789,34.57099914550781 -72.2750015258789,13.767000198364258z"></path></g><g opacity="1" transform="matrix(1,0,0,1,1413.2239990234375,453.6050109863281)"><path fill="rgb(220,228,213)" fill-opacity="1" d=" M21,21 C21,21 -21,21 -21,21 C-21,21 -21,-21 -21,-21 C-21,-21 21,-21 21,-21 C21,-21 21,21 21,21z"></path></g></g></g></svg>
